o Cube
v 1.000000 -1.000000 -1.000000
v 1.000000 -1.000000 1.000000
v -1.000000 -1.000000 1.000000
v -1.000000 -1.000000 -1.000000
v 1.000000 1.000000 -0.999999
v 0.999999 1.000000 1.000001
v -1.000000 1.000000 1.000000
v -1.000000 1.000000 -1.000000
vt 0.626059 0.265705 
vt 0.626059 0.487398
vt 0.404365 0.487398
vt 0.626060 0.930786
vt 0.404365 0.930786
vt 0.404365 0.709091
vt 0.847752 0.487397
vt 0.847753 0.709091
vt 0.626059 0.709091
vt 0.182672 0.487397
vt 0.626059 0.044011
vt 0.404366 0.265704
vt 0.182671 0.709091
vt 0.404366 0.044011
vn 0.000000 -1.000000 0.000000
vn -0.000000 1.000000 0.000000
vn 1.000000 -0.000000 0.000001
vn -0.000000 -0.000000 1.000000
vn -1.000000 -0.000000 -0.000000
vn 0.000000 0.000000 -1.000000
vn 1.000000 0.000000 -0.000000
usemtl BoxMtl
s off
f 1/1/1 2/2/1 3/3/1
f 5/4/2 8/5/2 7/6/2
f 1/7/3 5/8/3 6/9/3
f 2/2/4 6/9/4 3/3/4
f 3/3/5 7/6/5 4/10/5
f 5/11/6 1/1/6 4/12/6
f 4/12/1 1/1/1 3/3/1
f 6/9/2 5/4/2 7/6/2
f 2/2/7 1/7/7 6/9/7
f 6/9/4 7/6/4 3/3/4
f 7/6/5 8/13/5 4/10/5
f 8/14/6 5/11/6 4/12/6