# File produced by Open Asset Import Library (http://www.assimp.sf.net)
# (assimp v3.1.187496374)

mtllib Cube.obj.mtl

# 8 vertex positions
v  0.0609892 0.114653 0.100048
v  -0.139011 -0.0853474 0.100048
v  -0.139011 0.114653 0.100048
v  0.0609892 -0.0853474 0.100048
v  -0.139011 0.114653 0.300048
v  0.0609892 -0.0853474 0.300048
v  0.0609892 0.114653 0.300048
v  -0.139011 -0.0853474 0.300048


///

///

///
# 0 UV coordinates

# 6 vertex normals
vn 0 0 -0.001
vn 0 0 0.001
vn 0.001 0 0
vn -0.001 0 0
vn 0 0.001 0
vn 0 -0.001 0

# Mesh 'root_mesh_id27' with 12 faces
g root_mesh_id27
usemtl Material_51
f  1//1 2//1 3//1
f  1//1 4//1 2//1
f  5//2 6//2 7//2
f  5//2 8//2 6//2
f  7//3 4//3 1//3
f  7//3 6//3 4//3
f  3//4 8//4 5//4
f  3//4 2//4 8//4
f  3//5 7//5 1//5
f  3//5 5//5 7//5
f  8//6 4//6 6//6
f  8//6 2//6 4//6

